<?xml version="1.0" encoding="utf-8"?>
<!-- Generator: Adobe Illustrator 25.2.2, SVG Export Plug-In . SVG Version: 6.00 Build 0)  -->
<svg version="1.1" id="Layer_1" xmlns="http://www.w3.org/2000/svg" xmlns:xlink="http://www.w3.org/1999/xlink" x="0px" y="0px"
	 viewBox="0 0 1920 1080" style="enable-background:new 0 0 1920 1080;" xml:space="preserve">
<style type="text/css">
	.st0{fill:#F6921E;}
	.st1{fill:#EC1C24;}
	.st2{fill:#A6A8AB;}
	.st3{fill:#FFFFFF;}
</style>
<polygon class="st0" points="1331.48,296.8 1331.48,296.8 1331.48,296.8 "/>
<polygon class="st1" points="1331.48,296.8 1331.48,296.8 1331.48,296.8 "/>
<rect x="1331.48" y="296.8" class="st1" width="0" height="0"/>
<polygon class="st1" points="1331.48,296.8 1331.48,296.8 1331.48,296.8 1331.48,296.8 1331.48,296.8 "/>
<rect x="1331.48" y="296.8" class="st1" width="0" height="0"/>
<polygon class="st1" points="1331.48,296.8 1331.48,296.8 1331.48,296.8 "/>
<rect x="1331.48" y="296.8" class="st1" width="0" height="0"/>
<g>
	<g>
		<path class="st1" d="M1328.51,525.78c0,21.73-1.73,43.05-5.06,63.83c-27.94,174.32-168.44,311.04-344.61,333.26
			c-16.57,2.09-33.45,3.17-50.59,3.17c-206.6,0-376.64-156.53-397.99-357.47v-0.01c-1.5-14.06,64.52-43.29,64.52-57.74
			c0-78.88-4.58-199.45-4.58-199.45c71.01-111.72,195.87-185.86,338.05-185.86C1149.31,125.52,1328.51,304.72,1328.51,525.78z"/>
	</g>
	<path class="st2" d="M1323.45,589.61c-27.94,174.32-168.44,311.04-344.61,333.26l-448.57-354.3l275.3-71.09l181.39-157.49
		L1323.45,589.61z"/>
	<g>
		<path class="st3" d="M1030.61,542.68c0,8.37,21.25,17.29,21.83,42.76c0.28,12.55-8.9,29.3-19.81,36.94
			c-11.23,7.85-24.19,6.4-24.19,6.4s0,0-115.9,0c-3.03,0-25.47,6.97-6.72,35.22c12.49,22.07,22.09,42.89,28.09,60.14
			c8.56,23.68,4.12,54.44,1.48,62.9c-12.35,39.52-39.42,44.44-54.84,41.14c-6.26-1.33-11.51-17.8-11.75-23.11
			c-1.56-34.15-6.28-56.96-12.96-73.04c-8.43-20.27-19.97-29.86-32.21-38.02c-23.49-15.65-26.09-33.92-53.49-96.53
			c-14.59-33.33-29.91-39.83-41.06-41.58c-2.82-0.44-1.24-1.16-33.82-1.95c-11.3-0.28-1.65,15.34-1.65,15.34
			c-35.3-0.78-91.79-0.86-143.34-0.72c-1.5-14.06-2.27-28.33-2.27-42.78c0-78.88,22.81-152.42,62.21-214.4
			c37.19,0.03,74.74,0.23,100.94,0.72c0,0-12.91,34.24-4.55,34.38c13.52,0.23,17.67,0.41,18.73,0.5
			c145.94-26.44,210.21-19.44,249.63-15.62c27.68,2.68,51.33,17.47,57.94,33.13c3.05,7.22,0.29,25.14,0.29,29.67
			c0,9.09,19.71,11.55,25.82,30.19c5.29,16.11-7.31,31.44-10.94,39.31c-3.86,8.35,23.77,21.86,24.38,40.29
			C1053.07,522.92,1030.61,538.43,1030.61,542.68z"/>
	</g>
</g>
</svg>
