<?xml version="1.0" encoding="utf-8"?>
<!-- Generator: Adobe Illustrator 25.2.2, SVG Export Plug-In . SVG Version: 6.00 Build 0)  -->
<svg version="1.1" id="Layer_1" xmlns="http://www.w3.org/2000/svg" xmlns:xlink="http://www.w3.org/1999/xlink" x="0px" y="0px"
	 viewBox="0 0 1920 1080" style="enable-background:new 0 0 1920 1080;" xml:space="preserve">
<style type="text/css">
	.st0{fill:#009345;}
	.st1{fill:#A6A8AB;}
	.st2{fill:#FFFFFF;}
</style>
<g>
	<g>
		<path class="st0" d="M1300.76,510.17c0,220.27-178.56,398.83-398.84,398.83c-7.36,0-14.67-0.2-21.93-0.6
			c-128.64-6.97-241.06-74.9-308.9-175.41v-0.01c0-77.55,0-110.55,0-193.08c0-11.27-67.53-52.16-66.62-63.19
			c17-204.61,188.45-365.38,397.45-365.38c210.08,0,382.23,162.43,397.7,368.55C1300.37,489.88,1300.76,499.98,1300.76,510.17z"/>
	</g>
	<path class="st1" d="M1300.76,510.17c0,220.27-178.56,398.83-398.84,398.83c-7.36,0-14.67-0.2-21.93-0.6l-308.9-175.41
		l233.96-201.07l75.92-300.77l418.65,248.74C1300.37,489.88,1300.76,499.98,1300.76,510.17z"/>
	<g>
		<path class="st2" d="M1001.37,581.27c3.61,7.84,16.17,23.11,10.9,39.16c-6.09,18.57-25.73,21.02-25.73,30.09
			c0,4.51,2.75,22.37-0.29,29.56c-6.59,15.6-30.16,30.34-57.74,33.01c-39.28,3.8-103.32,10.78-248.76-15.57h-0.01
			c-1.1,0.09-5.27,0.27-18.64,0.51c-8.33,0.14,4.53,34.26,4.53,34.26c-24.7,0.46-59.51,0.66-94.56,0.71v-0.01
			c-42.94-63.62-68-140.29-68-222.82c0-11.27,0.47-22.42,1.38-33.45c51.61,0.15,108.33,0.08,143.71-0.71c0,0-9.61,15.56,1.65,15.29
			c32.46-0.79,30.89-1.5,33.7-1.95c11.11-1.75,26.38-8.22,40.91-41.44c27.3-62.39,29.9-80.58,53.3-96.18
			c12.2-8.13,23.7-17.69,32.09-37.89c6.66-16.03,11.36-38.75,12.91-72.78c0.24-5.3,5.47-21.69,11.7-23.03
			c15.37-3.29,42.35,1.61,54.65,41c2.64,8.43,7.06,39.07-1.47,62.67c-5.97,17.18-15.54,37.93-27.99,59.93
			c-18.69,28.15,3.67,35.09,6.69,35.09c115.49,0,115.49,0,115.49,0s12.92-1.45,24.11,6.38c10.87,7.6,20.02,24.29,19.74,36.8
			c-0.57,25.38-21.75,34.27-21.75,42.61c0,4.24,22.38,19.69,21.76,38.61C1025.06,559.49,997.52,572.95,1001.37,581.27z"/>
	</g>
</g>
</svg>
